<?xml version="1.0" standalone="no"?>
<!DOCTYPE svg PUBLIC "-//W3C//DTD SVG 20010904//EN"
 "http://www.w3.org/TR/2001/REC-SVG-20010904/DTD/svg10.dtd">
<svg version="1.0" xmlns="http://www.w3.org/2000/svg"
 width="306.000000pt" height="306.000000pt" viewBox="0 0 306.000000 306.000000"
 preserveAspectRatio="xMidYMid meet">
<metadata>
Created by potrace 1.14, written by Peter Selinger 2001-2017
</metadata>
<g transform="translate(0.000000,306.000000) scale(0.100000,-0.100000)"
fill="#000000" stroke="none">
<path d="M0 1530 l0 -1530 379 0 378 0 7 37 c3 21 6 74 7 118 0 56 3 73 9 59
11 -27 32 -42 38 -26 7 21 25 13 64 -29 41 -44 47 -59 23 -59 -8 0 -15 7 -15
15 0 18 -46 42 -58 31 -4 -4 1 -13 11 -20 9 -7 17 -17 17 -21 0 -4 23 -29 51
-56 l51 -49 856 0 c471 0 852 4 846 8 -5 4 -25 20 -45 34 -24 18 -50 55 -80
113 -62 122 -118 188 -184 221 -35 17 -55 33 -55 44 0 17 27 147 51 248 12 52
13 52 45 46 49 -9 79 25 89 102 7 62 33 148 65 218 10 22 24 59 29 82 12 46
18 265 8 281 -4 6 -2 46 3 89 5 44 10 93 10 109 0 17 3 59 6 94 8 90 -20 251
-57 323 -5 10 -9 24 -9 32 0 28 -73 151 -131 222 -32 40 -59 75 -59 79 0 3
-13 25 -29 48 -16 23 -36 65 -45 92 -10 28 -29 67 -42 87 -23 33 -25 40 -14
71 17 46 -6 83 -64 98 -63 17 -88 31 -99 58 -14 29 -120 141 -134 141 -5 0
-28 13 -49 28 -21 16 -66 42 -99 58 l-60 29 -857 3 -858 2 0 -1530z m1172
1478 c-12 -12 -35 -1 -27 12 3 5 13 6 21 3 10 -4 12 -9 6 -15z m-33 -44 c2 -2
-10 -4 -27 -4 -17 0 -34 4 -37 10 -5 9 53 3 64 -6z m176 -14 c-27 -12 -35 -12
-35 0 0 6 12 10 28 9 24 0 25 -1 7 -9z m-302 -37 c-7 -2 -19 -2 -25 0 -7 3 -2
5 12 5 14 0 19 -2 13 -5z m27 -133 c0 -5 -4 -10 -10 -10 -5 0 -10 5 -10 10 0
6 5 10 10 10 6 0 10 -4 10 -10z m607 -16 c4 -12 14 -14 36 -10 20 4 40 0 61
-13 17 -10 55 -26 84 -36 67 -22 122 -72 122 -112 0 -16 6 -35 12 -41 10 -10
10 -17 1 -32 -10 -14 -10 -20 0 -23 7 -3 4 -6 -5 -6 -10 -1 -18 -9 -18 -18 0
-10 -7 -27 -15 -37 -8 -11 -15 -26 -15 -35 0 -8 -8 -23 -17 -34 -14 -15 -15
-21 -5 -24 10 -4 9 -8 -3 -17 -14 -10 -12 -15 14 -44 17 -17 37 -32 47 -32 11
0 15 -6 11 -20 -3 -10 2 -25 9 -31 13 -10 11 -15 -7 -36 -13 -12 -33 -23 -47
-23 -21 0 -24 -4 -20 -25 4 -19 1 -25 -13 -25 -11 0 -19 -4 -19 -9 0 -12 -67
-24 -82 -15 -27 17 -90 11 -124 -13 -19 -12 -43 -23 -53 -23 -25 0 -44 -41
-37 -81 3 -19 14 -67 25 -108 12 -45 19 -101 18 -147 -1 -59 3 -77 18 -94 17
-19 17 -21 2 -33 -14 -10 -15 -19 -6 -56 8 -35 7 -47 -6 -61 -8 -9 -15 -20
-15 -23 0 -10 -39 -47 -49 -47 -5 0 -12 -7 -15 -16 -3 -8 -10 -12 -16 -9 -5 3
-10 2 -10 -3 0 -8 -100 -7 -129 0 -21 6 -69 -17 -90 -42 l-23 -31 20 -47 c18
-40 25 -47 52 -50 24 -3 36 2 47 17 16 24 38 28 30 7 -3 -8 1 -20 9 -26 8 -7
14 -9 14 -4 0 5 6 0 14 -11 19 -28 29 -82 17 -90 -16 -9 -13 -36 6 -57 20 -22
66 -24 83 -3 16 19 86 20 93 1 4 -10 -12 -23 -50 -41 -53 -26 -58 -27 -108
-15 -45 11 -59 10 -102 -4 -69 -23 -121 -26 -198 -13 -56 10 -68 9 -75 -3 -8
-13 -11 -13 -25 1 -15 14 -15 20 0 60 10 24 17 53 18 64 0 11 5 23 11 27 5 3
11 14 12 23 1 9 10 22 18 28 41 31 124 217 96 217 -5 0 -10 -6 -10 -14 0 -8
-8 -17 -18 -20 -21 -7 -105 -84 -115 -107 -10 -22 -30 -51 -50 -73 -10 -11
-15 -26 -13 -33 3 -6 -4 -15 -15 -18 -11 -4 -27 -17 -35 -31 -9 -13 -20 -22
-24 -19 -13 8 -19 -22 -7 -34 9 -9 8 -14 -3 -21 -13 -8 -13 -10 -1 -10 12 0
11 -3 -2 -12 -21 -16 -28 -64 -9 -60 7 1 23 -5 35 -14 l22 -16 -25 7 -25 8 25
-25 c14 -14 34 -37 46 -51 l21 -25 -26 -41 c-14 -23 -30 -41 -35 -41 -5 0 -5
6 0 13 11 15 12 47 1 47 -4 0 -11 0 -16 0 -5 0 -7 -10 -4 -22 3 -17 2 -19 -5
-9 -6 8 -17 11 -31 6 -15 -4 -29 -1 -42 11 -27 24 -24 12 6 -20 13 -14 28 -25
34 -24 5 2 9 0 10 -4 3 -25 -1 -30 -20 -25 -15 4 -23 0 -26 -12 -4 -16 -8 -16
-49 5 -51 26 -104 68 -104 83 0 5 -14 20 -30 33 -19 15 -32 35 -34 53 -2 19
-11 31 -26 37 -18 7 -21 5 -16 -8 17 -44 -30 -94 -89 -94 -32 0 -45 31 -45
110 0 41 -9 85 -29 140 -16 44 -32 103 -35 132 -6 47 -3 57 19 83 l25 30 0
-32 c0 -17 4 -34 9 -37 4 -3 11 -19 14 -35 7 -34 43 -71 69 -71 16 0 18 9 16
88 l-3 87 -27 0 c-27 -1 -34 5 -22 17 3 4 7 33 8 66 2 55 1 60 -15 51 -23 -12
-29 -11 -29 4 0 7 10 21 21 31 18 15 21 26 17 67 -3 27 -2 49 2 49 20 0 37
105 19 116 -8 4 -7 9 2 15 17 10 30 178 16 197 -11 14 -37 -2 -37 -24 0 -7 -7
-20 -16 -28 -10 -10 -13 -24 -9 -38 l7 -23 -22 21 -22 22 20 28 c15 21 22 52
26 114 15 207 44 297 151 460 79 123 83 127 153 163 39 21 74 42 77 47 3 5 31
11 63 15 83 9 151 25 201 47 24 11 82 26 130 34 47 8 118 22 157 31 43 9 86
13 108 9 23 -4 36 -3 36 4 0 16 40 12 47 -6z m-1137 -833 c0 -6 -4 -13 -10
-16 -5 -3 -10 1 -10 9 0 9 5 16 10 16 6 0 10 -4 10 -9z m2 -211 c5 0 11 7 15
16 12 32 20 -8 9 -46 -12 -41 -26 -62 -26 -40 0 7 -12 24 -26 37 -19 17 -23
28 -16 35 6 6 8 17 5 24 -3 8 -2 22 3 32 6 13 9 9 17 -20 6 -21 14 -38 19 -38z
m-47 -61 c6 -12 14 -21 19 -19 18 4 26 -29 17 -76 -5 -26 -6 -54 -3 -62 4 -11
1 -14 -11 -9 -10 4 -21 -1 -27 -11 -8 -13 -10 4 -5 66 5 68 3 83 -10 88 -18 7
-20 44 -2 44 7 0 17 -10 22 -21z m1362 15 c-3 -3 -12 -4 -19 -1 -8 3 -5 6 6 6
11 1 17 -2 13 -5z m8 -70 c13 -2 35 -8 47 -13 13 -5 66 -14 118 -20 160 -20
160 -20 160 -41 0 -10 5 -20 12 -22 8 -3 8 -16 -2 -50 -8 -26 -18 -44 -22 -41
-15 9 -38 -19 -38 -46 -1 -31 -24 -66 -39 -57 -5 4 -12 2 -16 -4 -3 -5 -1 -10
4 -10 6 0 11 -4 11 -10 0 -5 -6 -10 -13 -10 -8 0 -22 -9 -32 -20 -10 -11 -21
-17 -26 -15 -4 3 -11 0 -15 -6 -5 -9 -11 -7 -20 5 -10 14 -16 15 -33 6 -12 -6
-21 -7 -21 -3 0 4 -22 33 -48 64 -66 77 -79 109 -87 217 -6 92 -6 94 14 87 11
-3 32 -8 46 -11z m-86 -167 c13 -16 5 -27 -20 -27 -21 0 -33 15 -24 30 9 14
31 12 44 -3z m-349 -207 c0 -5 -4 -10 -10 -10 -5 0 -10 5 -10 10 0 6 5 10 10
10 6 0 10 -4 10 -10z m112 -382 c32 -7 58 -16 58 -20 0 -5 -12 -5 -27 -2 -23
5 -26 4 -16 -6 10 -11 8 -16 -11 -25 -29 -15 -77 -29 -93 -26 -15 2 -46 -13
-67 -34 -23 -24 -3 -66 53 -109 43 -32 56 -37 105 -37 31 -1 59 -5 62 -10 3
-6 15 -7 26 -3 36 11 118 -35 118 -67 0 -6 -7 -9 -15 -5 -8 3 -18 0 -22 -7 -5
-7 -17 -17 -28 -23 -11 -6 -24 -20 -30 -30 -7 -14 -21 -19 -50 -19 -22 0 -53
-6 -70 -14 -16 -8 -44 -14 -62 -14 -18 1 -36 -3 -39 -8 -3 -5 -9 -7 -14 -4 -5
3 -25 -1 -44 -9 -33 -14 -57 -14 -149 -2 -15 2 -45 12 -65 22 -50 26 -123 101
-116 119 4 8 -1 17 -9 21 -15 5 -19 54 -4 54 8 0 30 46 32 71 1 10 11 30 22
45 11 16 25 43 32 61 19 48 85 77 170 74 37 -1 78 2 91 8 34 14 93 13 162 -1z
m-705 -640 c-3 -8 -6 -5 -6 6 -1 11 2 17 5 13 3 -3 4 -12 1 -19z"/>
<path d="M1818 2093 c7 -3 16 -2 19 1 4 3 -2 6 -13 5 -11 0 -14 -3 -6 -6z"/>
<path d="M1100 2019 c-30 -11 -70 -20 -88 -21 -18 0 -39 -6 -46 -14 -9 -9 -16
-10 -18 -3 -5 14 -58 -6 -58 -22 0 -7 -7 -19 -15 -28 -66 -71 -100 -136 -89
-166 7 -17 20 -19 29 -5 9 15 35 12 35 -4 0 -7 -7 -19 -15 -26 -17 -14 -20
-50 -5 -50 6 0 10 -7 10 -16 0 -12 6 -15 23 -10 12 4 56 9 97 12 51 3 77 10
83 20 9 16 77 20 77 4 0 -5 -7 -10 -16 -10 -9 0 -12 -5 -8 -12 9 -14 -21 -37
-44 -33 -9 1 -11 0 -4 -2 10 -4 10 -8 1 -19 -10 -12 -3 -14 42 -15 47 -1 50
-2 24 -10 -23 -6 -15 -7 31 -5 46 3 72 11 111 35 52 32 70 55 52 66 -15 10 0
25 23 25 11 0 33 13 48 29 25 26 29 38 35 127 12 149 4 157 -166 167 -78 4
-103 2 -149 -14z m-116 -145 c14 -5 13 -9 -7 -24 -23 -18 -82 -50 -92 -50 -16
0 32 61 55 69 14 5 26 10 27 10 1 1 8 -2 17 -5z m128 -32 c12 -5 -4 -15 -57
-33 -78 -27 -86 -16 -16 21 39 21 47 22 73 12z"/>
<path d="M562 1322 c-9 -26 -8 -32 3 -32 20 0 26 15 17 41 -9 22 -9 22 -20 -9z"/>
<path d="M503 1023 c9 -9 19 -14 23 -11 10 10 -6 28 -24 28 -15 0 -15 -1 1
-17z"/>
<path d="M620 921 c0 -5 5 -13 10 -16 6 -3 10 -2 10 4 0 5 -4 13 -10 16 -5 3
-10 2 -10 -4z"/>
<path d="M950 852 c0 -7 -7 -12 -15 -12 -8 0 -15 -4 -15 -10 0 -16 27 -11 34
6 4 9 4 19 1 22 -3 3 -5 0 -5 -6z"/>
<path d="M943 793 c-16 -6 -17 -33 -3 -33 11 0 26 28 19 34 -2 2 -10 1 -16 -1z"/>
<path d="M875 711 c-3 -5 -1 -12 5 -16 5 -3 10 1 10 9 0 18 -6 21 -15 7z"/>
<path d="M2576 3044 c-3 -8 -10 -12 -16 -9 -5 3 -10 3 -10 -1 0 -11 34 -33 53
-34 23 0 22 -13 -3 -35 -27 -24 -27 -65 0 -65 31 0 24 -59 -9 -71 -26 -10 -20
-24 14 -31 16 -3 20 -11 18 -42 -2 -21 4 -48 12 -59 18 -26 19 -54 3 -59 -12
-4 -8 -20 14 -51 9 -13 10 -20 2 -25 -6 -4 -13 -20 -16 -35 -4 -21 0 -30 14
-38 13 -7 16 -14 10 -22 -5 -7 -7 -30 -5 -52 2 -22 4 -59 5 -82 1 -32 6 -43
21 -47 17 -4 18 -8 8 -20 -7 -8 -9 -21 -5 -27 4 -7 8 -42 10 -78 3 -101 9
-155 18 -170 5 -8 4 -16 -3 -20 -7 -5 -8 -21 -2 -51 5 -25 9 -36 10 -25 2 20
2 20 16 1 19 -25 19 -36 0 -36 -22 0 -18 -37 5 -43 27 -7 25 -25 -2 -37 -19
-7 -20 -9 -5 -9 13 -1 17 -6 12 -20 -3 -12 0 -21 10 -25 9 -3 13 -10 10 -16
-3 -5 -1 -10 5 -10 6 0 9 -4 5 -10 -3 -5 -12 -7 -20 -3 -8 3 -15 0 -15 -6 0
-6 10 -11 22 -11 12 0 18 -3 14 -7 -4 -5 -13 -8 -19 -8 -7 0 -13 -8 -15 -17
-2 -13 3 -18 17 -18 27 0 28 -30 1 -37 -19 -5 -29 -43 -12 -43 4 0 16 -7 26
-15 15 -12 17 -17 7 -29 -7 -8 -10 -20 -6 -26 3 -5 2 -10 -4 -10 -20 0 6 -45
30 -51 24 -7 24 -7 2 -14 -21 -7 -36 -45 -24 -63 3 -5 16 -13 29 -16 18 -6 21
-10 11 -22 -6 -7 -16 -11 -21 -8 -12 8 -37 -25 -38 -48 0 -10 5 -18 10 -18 13
0 13 -26 -2 -49 -16 -26 -4 -48 34 -64 l32 -13 -32 -19 c-41 -25 -37 -47 11
-58 48 -12 50 -37 3 -37 -24 0 -39 -7 -50 -22 -18 -25 -13 -38 15 -38 10 0 19
-6 19 -13 0 -16 -67 -50 -81 -42 -5 4 -9 2 -9 -3 0 -12 34 -42 47 -42 6 0 13
-7 17 -15 6 -16 -21 -35 -49 -35 -12 0 -15 -5 -11 -16 3 -9 6 -19 6 -24 0 -4
14 -13 30 -20 17 -7 30 -16 30 -20 0 -5 -13 -14 -30 -22 -40 -17 -38 -31 10
-53 22 -10 40 -21 40 -25 0 -4 -18 -13 -40 -20 -45 -15 -53 -39 -18 -62 24
-16 17 -38 -13 -38 -22 0 -39 -32 -21 -38 7 -2 9 -9 6 -14 -4 -7 -2 -8 4 -4 6
4 26 -1 44 -10 l33 -18 -37 -15 c-50 -21 -49 -44 2 -61 22 -7 40 -17 40 -21 0
-14 -61 -41 -78 -34 -14 5 -14 4 1 -13 9 -10 15 -21 12 -24 -3 -3 15 -11 40
-17 25 -6 45 -13 45 -15 0 -3 -22 -12 -50 -21 -27 -9 -50 -22 -50 -29 0 -7 26
-21 57 -32 31 -12 58 -25 60 -31 3 -9 -58 -24 -99 -24 -10 0 -18 -7 -18 -15 0
-8 10 -14 25 -14 14 0 25 -4 25 -10 0 -6 55 -10 145 -10 l145 0 0 24 c0 19 -7
25 -35 30 -40 8 -45 21 -13 32 30 9 48 29 48 52 0 16 -9 22 -42 27 -41 7 -41
8 -17 21 13 7 32 13 42 14 12 0 17 8 17 30 0 27 -3 30 -30 30 -19 0 -30 5 -30
14 0 7 14 19 30 26 21 9 30 19 30 36 0 13 -4 24 -10 24 -5 0 -10 9 -10 20 0
11 5 20 10 20 6 0 10 21 10 46 0 37 -3 45 -15 40 -8 -3 -15 -1 -15 4 0 6 7 10
15 10 10 0 15 10 15 28 0 27 -32 52 -69 52 -27 1 19 30 46 30 19 0 23 5 23 33
0 29 -3 32 -30 33 -17 1 -34 4 -37 8 -10 10 17 26 45 26 18 0 22 6 22 29 0 23
-6 32 -32 42 l-33 13 33 3 c29 4 32 7 32 38 0 26 -5 35 -22 41 -44 13 -51 25
-27 50 l22 24 -29 12 c-37 16 -38 48 -3 62 14 6 33 19 43 28 16 17 16 17 -11
12 -21 -4 -31 0 -40 15 -11 18 -10 22 10 32 22 12 57 44 57 53 0 2 -14 9 -31
15 -37 13 -34 34 7 42 16 4 23 7 17 8 -7 0 -13 8 -13 17 0 9 -12 25 -26 37
-25 19 -26 21 -8 34 10 7 26 13 36 13 10 0 18 3 18 6 0 9 -28 34 -38 34 -6 0
-13 7 -16 16 -4 11 4 26 26 45 22 20 27 29 15 29 -9 0 -19 5 -22 10 -7 12 16
70 27 70 5 0 8 11 8 25 0 16 -6 25 -16 25 -11 0 -14 6 -8 23 3 12 11 24 15 25
12 5 11 52 -1 52 -5 0 -10 7 -10 15 0 8 5 15 10 15 15 0 12 67 -2 73 -10 4
-10 6 0 6 9 1 12 134 12 631 l0 630 -239 0 c-207 0 -240 -2 -245 -16z m384
-1960 c0 -8 -4 -12 -10 -9 -5 3 -10 10 -10 16 0 5 5 9 10 9 6 0 10 -7 10 -16z
m-3 -500 c-3 -3 -12 -4 -19 -1 -8 3 -5 6 6 6 11 1 17 -2 13 -5z"/>
</g>
</svg>
